<?xml version="1.0" encoding="UTF-8" standalone="no"?>
<!DOCTYPE svg PUBLIC "-//W3C//DTD SVG 1.1//EN"
 "http://www.w3.org/Graphics/SVG/1.1/DTD/svg11.dtd">
<!-- Generated by graphviz version 14.1.1 (20251213.1925)
 -->
<!-- Title: Ethereum_Mempool_Architecture Pages: 1 -->
<svg width="3960pt" height="513pt"
 viewBox="0.00 0.00 3960.00 513.00" xmlns="http://www.w3.org/2000/svg" xmlns:xlink="http://www.w3.org/1999/xlink">
<g id="graph0" class="graph" transform="scale(4.16667 4.16667) rotate(0) translate(4 119)">
<title>Ethereum_Mempool_Architecture</title>
<polygon fill="white" stroke="none" points="-4,4 -4,-119 946.5,-119 946.5,4 -4,4"/>
<!-- ETH -->
<g id="node1" class="node">
<title>ETH</title>
<polygon fill="#e3f2fd" stroke="black" stroke-width="1.2" points="97.75,-75 0,-75 0,-39 97.75,-39 97.75,-75"/>
<text xml:space="preserve" text-anchor="middle" x="48.88" y="-53.3" font-family="Helvetica,sans-Serif" font-weight="bold" font-size="11.00">Ethereum Node</text>
</g>
<!-- MON -->
<g id="node2" class="node">
<title>MON</title>
<polygon fill="#e3f2fd" stroke="black" stroke-width="1.2" points="264.75,-115 157.25,-115 157.25,-79 264.75,-79 264.75,-115"/>
<text xml:space="preserve" text-anchor="middle" x="211" y="-93.3" font-family="Helvetica,sans-Serif" font-weight="bold" font-size="11.00">Mempool Monitor</text>
</g>
<!-- ETH&#45;&gt;MON -->
<g id="edge1" class="edge">
<title>ETH&#45;&gt;MON</title>
<path fill="none" stroke="black" d="M48.5,-75.59C48.5,-86.04 48.5,-97 48.5,-97 48.5,-97 145.38,-97 145.38,-97"/>
<polygon fill="black" stroke="black" points="145.38,-100.5 155.38,-97 145.38,-93.5 145.38,-100.5"/>
</g>
<!-- STREAM -->
<g id="node6" class="node">
<title>STREAM</title>
<polygon fill="#fff9c4" stroke="black" stroke-width="1.2" points="260.25,-36 155.75,-36 155.75,0 266.25,0 266.25,-30 260.25,-36"/>
<polyline fill="none" stroke="black" stroke-width="1.2" points="260.25,-36 260.25,-30"/>
<polyline fill="none" stroke="black" stroke-width="1.2" points="266.25,-30 260.25,-30"/>
<text xml:space="preserve" text-anchor="middle" x="211" y="-19.95" font-family="Courier,monospace" font-size="9.00">Transaction Stream</text>
<text xml:space="preserve" text-anchor="middle" x="211" y="-9.45" font-family="Courier,monospace" font-size="9.00">(15 tx/s nominal)</text>
</g>
<!-- ETH&#45;&gt;STREAM -->
<g id="edge5" class="edge">
<title>ETH&#45;&gt;STREAM</title>
<path fill="none" stroke="#4d4d4d" stroke-dasharray="5,2" d="M48.5,-38.41C48.5,-28.37 48.5,-18 48.5,-18 48.5,-18 144.31,-18 144.31,-18"/>
<polygon fill="#4d4d4d" stroke="#4d4d4d" points="154.31,-18 144.31,-22.5 150.53,-18 144.31,-18 144.31,-18 144.31,-18 150.53,-18 144.31,-13.5 154.31,-18"/>
</g>
<!-- FE -->
<g id="node3" class="node">
<title>FE</title>
<polygon fill="#e3f2fd" stroke="black" stroke-width="1.2" points="431.75,-115 324.25,-115 324.25,-79 431.75,-79 431.75,-115"/>
<text xml:space="preserve" text-anchor="middle" x="378" y="-93.3" font-family="Helvetica,sans-Serif" font-weight="bold" font-size="11.00">Feature Extractor</text>
</g>
<!-- MON&#45;&gt;FE -->
<g id="edge2" class="edge">
<title>MON&#45;&gt;FE</title>
<path fill="none" stroke="black" d="M265.22,-97C265.22,-97 312.25,-97 312.25,-97"/>
<polygon fill="black" stroke="black" points="312.25,-100.5 322.25,-97 312.25,-93.5 312.25,-100.5"/>
</g>
<!-- XGB -->
<g id="node4" class="node">
<title>XGB</title>
<polygon fill="#e3f2fd" stroke="black" stroke-width="1.2" points="601,-115 489.75,-115 489.75,-79 601,-79 601,-115"/>
<text xml:space="preserve" text-anchor="middle" x="545.38" y="-93.3" font-family="Helvetica,sans-Serif" font-weight="bold" font-size="11.00">XGBoost Detector</text>
</g>
<!-- FE&#45;&gt;XGB -->
<g id="edge3" class="edge">
<title>FE&#45;&gt;XGB</title>
<path fill="none" stroke="black" d="M432.34,-97C432.34,-97 477.78,-97 477.78,-97"/>
<polygon fill="black" stroke="black" points="477.78,-100.5 487.78,-97 477.78,-93.5 477.78,-100.5"/>
</g>
<!-- ALT -->
<g id="node5" class="node">
<title>ALT</title>
<polygon fill="#e3f2fd" stroke="black" stroke-width="1.2" points="742.5,-115 659,-115 659,-79 742.5,-79 742.5,-115"/>
<text xml:space="preserve" text-anchor="middle" x="700.75" y="-93.3" font-family="Helvetica,sans-Serif" font-weight="bold" font-size="11.00">Alert System</text>
</g>
<!-- XGB&#45;&gt;ALT -->
<g id="edge4" class="edge">
<title>XGB&#45;&gt;ALT</title>
<path fill="none" stroke="black" d="M601.47,-97C601.47,-97 647.37,-97 647.37,-97"/>
<polygon fill="black" stroke="black" points="647.37,-100.5 657.37,-97 647.37,-93.5 647.37,-100.5"/>
</g>
<!-- RESULT -->
<g id="node7" class="node">
<title>RESULT</title>
<polygon fill="#fff9c4" stroke="black" stroke-width="1.2" points="936.5,-115 800.5,-115 800.5,-79 942.5,-79 942.5,-109 936.5,-115"/>
<polyline fill="none" stroke="black" stroke-width="1.2" points="936.5,-115 936.5,-109"/>
<polyline fill="none" stroke="black" stroke-width="1.2" points="942.5,-109 936.5,-109"/>
<text xml:space="preserve" text-anchor="middle" x="871.5" y="-98.95" font-family="Courier,monospace" font-size="9.00">Detection Results</text>
<text xml:space="preserve" text-anchor="middle" x="871.5" y="-88.45" font-family="Courier,monospace" font-size="9.00">(Attack Classifications)</text>
</g>
<!-- ALT&#45;&gt;RESULT -->
<g id="edge6" class="edge">
<title>ALT&#45;&gt;RESULT</title>
<path fill="none" stroke="#4d4d4d" stroke-dasharray="5,2" d="M742.96,-97C742.96,-97 788.99,-97 788.99,-97"/>
<polygon fill="#4d4d4d" stroke="#4d4d4d" points="798.99,-97 788.99,-101.5 795.21,-97 788.99,-97 788.99,-97 788.99,-97 795.21,-97 788.99,-92.5 798.99,-97"/>
</g>
</g>
</svg>
