<?xml version="1.0" encoding="UTF-8" standalone="no"?>
<!DOCTYPE svg PUBLIC "-//W3C//DTD SVG 1.1//EN"
 "http://www.w3.org/Graphics/SVG/1.1/DTD/svg11.dtd">
<!-- Generated by graphviz version 14.1.1 (20251213.1925)
 -->
<!-- Pages: 1 -->
<svg width="6933pt" height="7561pt"
 viewBox="0.00 0.00 6933.00 7561.00" xmlns="http://www.w3.org/2000/svg" xmlns:xlink="http://www.w3.org/1999/xlink">
<g id="graph0" class="graph" transform="scale(4.16667 4.16667) rotate(0) translate(4 1810.6)">
<polygon fill="white" stroke="none" points="-4,4 -4,-1810.6 1660,-1810.6 1660,4 -4,4"/>
<g id="clust1" class="cluster">
<title>cluster_0</title>
<path fill="white" stroke="#2c3e50" d="M742,-1410.7C742,-1410.7 914,-1410.7 914,-1410.7 920,-1410.7 926,-1416.7 926,-1422.7 926,-1422.7 926,-1786.6 926,-1786.6 926,-1792.6 920,-1798.6 914,-1798.6 914,-1798.6 742,-1798.6 742,-1798.6 736,-1798.6 730,-1792.6 730,-1786.6 730,-1786.6 730,-1422.7 730,-1422.7 730,-1416.7 736,-1410.7 742,-1410.7"/>
<text xml:space="preserve" text-anchor="middle" x="828" y="-1782.25" font-family="Arial Bold" font-size="13.00">1. Data Collection Module</text>
</g>
<g id="clust2" class="cluster">
<title>cluster_1</title>
<path fill="white" stroke="#16a085" d="M532,-1017.8C532,-1017.8 1126,-1017.8 1126,-1017.8 1132,-1017.8 1138,-1023.8 1138,-1029.8 1138,-1029.8 1138,-1341.2 1138,-1341.2 1138,-1347.2 1132,-1353.2 1126,-1353.2 1126,-1353.2 532,-1353.2 532,-1353.2 526,-1353.2 520,-1347.2 520,-1341.2 520,-1341.2 520,-1029.8 520,-1029.8 520,-1023.8 526,-1017.8 532,-1017.8"/>
<text xml:space="preserve" text-anchor="middle" x="829" y="-1336.85" font-family="Arial Bold" font-size="13.00">2. Feature Engineering Module</text>
</g>
<g id="clust3" class="cluster">
<title>cluster_features</title>
<polygon fill="white" stroke="#7dcea0" stroke-dasharray="5,2" points="528,-1148 528,-1223 1130,-1223 1130,-1148 528,-1148"/>
<text xml:space="preserve" text-anchor="middle" x="829" y="-1206.65" font-family="Arial Bold" font-size="13.00">2. Feature Engineering Module</text>
</g>
<g id="clust4" class="cluster">
<title>cluster_2</title>
<path fill="white" stroke="#8e44ad" d="M20,-827.3C20,-827.3 1636,-827.3 1636,-827.3 1642,-827.3 1648,-833.3 1648,-839.3 1648,-839.3 1648,-941.8 1648,-941.8 1648,-947.8 1642,-953.8 1636,-953.8 1636,-953.8 20,-953.8 20,-953.8 14,-953.8 8,-947.8 8,-941.8 8,-941.8 8,-839.3 8,-839.3 8,-833.3 14,-827.3 20,-827.3"/>
<text xml:space="preserve" text-anchor="middle" x="828" y="-937.45" font-family="Arial Bold" font-size="13.00">3. Model Training Framework (Parallel Evaluation)</text>
</g>
<g id="clust5" class="cluster">
<title>cluster_classical</title>
<polygon fill="white" stroke="#af7ac5" stroke-dasharray="5,2" points="16,-835.3 16,-922.8 688,-922.8 688,-835.3 16,-835.3"/>
<text xml:space="preserve" text-anchor="middle" x="352" y="-906.45" font-family="Arial Bold" font-size="13.00">Classical ML</text>
</g>
<g id="clust6" class="cluster">
<title>cluster_dl</title>
<polygon fill="white" stroke="#af7ac5" stroke-dasharray="5,2" points="730,-837.95 730,-920.15 1640,-920.15 1640,-837.95 730,-837.95"/>
<text xml:space="preserve" text-anchor="middle" x="1185" y="-903.8" font-family="Arial Bold" font-size="13.00">Deep Learning</text>
</g>
<g id="clust7" class="cluster">
<title>cluster_3</title>
<path fill="white" stroke="#e67e22" d="M599,-431.4C599,-431.4 1009,-431.4 1009,-431.4 1015,-431.4 1021,-437.4 1021,-443.4 1021,-443.4 1021,-775.3 1021,-775.3 1021,-781.3 1015,-787.3 1009,-787.3 1009,-787.3 599,-787.3 599,-787.3 593,-787.3 587,-781.3 587,-775.3 587,-775.3 587,-443.4 587,-443.4 587,-437.4 593,-431.4 599,-431.4"/>
<text xml:space="preserve" text-anchor="middle" x="804" y="-770.95" font-family="Arial Bold" font-size="13.00">4. Model Selection &amp; Statistical Validation</text>
</g>
<g id="clust8" class="cluster">
<title>cluster_4</title>
<path fill="white" stroke="#c0392b" d="M675,-8C675,-8 933,-8 933,-8 939,-8 945,-14 945,-20 945,-20 945,-351.4 945,-351.4 945,-357.4 939,-363.4 933,-363.4 933,-363.4 675,-363.4 675,-363.4 669,-363.4 663,-357.4 663,-351.4 663,-351.4 663,-20 663,-20 663,-14 669,-8 675,-8"/>
<text xml:space="preserve" text-anchor="middle" x="804" y="-347.05" font-family="Arial Bold" font-size="13.00">5. Production Deployment System</text>
</g>
<g id="clust9" class="cluster">
<title>cluster_explain</title>
<polygon fill="white" stroke="#ec7063" stroke-dasharray="5,2" points="671,-158.2 671,-233.2 937,-233.2 937,-158.2 671,-158.2"/>
<text xml:space="preserve" text-anchor="middle" x="804" y="-216.85" font-family="Arial Bold" font-size="13.00">5. Production Deployment System</text>
</g>
<g id="clust10" class="cluster">
<title>cluster_legend</title>
<polygon fill="white" stroke="#95a5a6" stroke-dasharray="5,2" points="1102,-1695.85 1102,-1769.35 1520,-1769.35 1520,-1695.85 1102,-1695.85"/>
<text xml:space="preserve" text-anchor="middle" x="1311" y="-1702.9" font-family="Arial" font-size="11.00">Legend</text>
</g>
<!-- ganache -->
<g id="node1" class="node">
<title>ganache</title>
<path fill="#3498db" stroke="black" d="M906,-1767.6C906,-1767.6 750,-1767.6 750,-1767.6 744,-1767.6 738,-1761.6 738,-1755.6 738,-1755.6 738,-1731.1 738,-1731.1 738,-1725.1 744,-1719.1 750,-1719.1 750,-1719.1 906,-1719.1 906,-1719.1 912,-1719.1 918,-1725.1 918,-1731.1 918,-1731.1 918,-1755.6 918,-1755.6 918,-1761.6 912,-1767.6 906,-1767.6"/>
<text xml:space="preserve" text-anchor="middle" x="828" y="-1753.15" font-family="Arial" font-size="11.00" fill="white">Ganache v7.4.0</text>
<text xml:space="preserve" text-anchor="middle" x="828" y="-1739.65" font-family="Arial" font-size="11.00" fill="white">Blockchain Testnet</text>
<text xml:space="preserve" text-anchor="middle" x="828" y="-1726.15" font-family="Arial" font-size="11.00" fill="white">(103,734 transactions)</text>
</g>
<!-- mempool -->
<g id="node2" class="node">
<title>mempool</title>
<path fill="#5dade2" stroke="black" d="M906,-1612.1C906,-1612.1 750,-1612.1 750,-1612.1 744,-1612.1 738,-1606.1 738,-1600.1 738,-1600.1 738,-1580.9 738,-1580.9 738,-1574.9 744,-1568.9 750,-1568.9 750,-1568.9 906,-1568.9 906,-1568.9 912,-1568.9 918,-1574.9 918,-1580.9 918,-1580.9 918,-1600.1 918,-1600.1 918,-1606.1 912,-1612.1 906,-1612.1"/>
<text xml:space="preserve" text-anchor="middle" x="828" y="-1593.55" font-family="Arial" font-size="11.00" fill="white">Mempool Monitor</text>
<text xml:space="preserve" text-anchor="middle" x="828" y="-1580.05" font-family="Arial" font-size="11.00" fill="white">(15 tx/s simulation)</text>
</g>
<!-- ganache&#45;&gt;mempool -->
<g id="edge1" class="edge">
<title>ganache&#45;&gt;mempool</title>
<path fill="none" stroke="black" d="M828,-1718.79C828,-1718.79 828,-1624.03 828,-1624.03"/>
<polygon fill="black" stroke="black" points="831.5,-1624.03 828,-1614.03 824.5,-1624.03 831.5,-1624.03"/>
<text xml:space="preserve" text-anchor="middle" x="858" y="-1667.55" font-family="Times New Roman,serif" font-size="9.00" fill="#566573">Block generation</text>
<text xml:space="preserve" text-anchor="middle" x="858" y="-1657.05" font-family="Times New Roman,serif" font-size="9.00" fill="#566573">12s intervals</text>
</g>
<!-- stream -->
<g id="node3" class="node">
<title>stream</title>
<path fill="#85c1e9" stroke="black" d="M906,-1461.9C906,-1461.9 750,-1461.9 750,-1461.9 744,-1461.9 738,-1455.9 738,-1449.9 738,-1449.9 738,-1430.7 738,-1430.7 738,-1424.7 744,-1418.7 750,-1418.7 750,-1418.7 906,-1418.7 906,-1418.7 912,-1418.7 918,-1424.7 918,-1430.7 918,-1430.7 918,-1449.9 918,-1449.9 918,-1455.9 912,-1461.9 906,-1461.9"/>
<text xml:space="preserve" text-anchor="middle" x="828" y="-1443.35" font-family="Arial" font-size="11.00">Transaction Stream</text>
<text xml:space="preserve" text-anchor="middle" x="828" y="-1429.85" font-family="Arial" font-size="11.00">(5 attack categories)</text>
</g>
<!-- mempool&#45;&gt;stream -->
<g id="edge2" class="edge">
<title>mempool&#45;&gt;stream</title>
<path fill="none" stroke="black" d="M828,-1568.66C828,-1568.66 828,-1473.68 828,-1473.68"/>
<polygon fill="black" stroke="black" points="831.5,-1473.68 828,-1463.68 824.5,-1473.68 831.5,-1473.68"/>
<text xml:space="preserve" text-anchor="middle" x="848.62" y="-1517.35" font-family="Times New Roman,serif" font-size="9.00" fill="#566573">Transaction</text>
<text xml:space="preserve" text-anchor="middle" x="848.62" y="-1506.85" font-family="Times New Roman,serif" font-size="9.00" fill="#566573">broadcast</text>
</g>
<!-- extract -->
<g id="node4" class="node">
<title>extract</title>
<path fill="#1abc9c" stroke="black" d="M906,-1322.2C906,-1322.2 750,-1322.2 750,-1322.2 744,-1322.2 738,-1316.2 738,-1310.2 738,-1310.2 738,-1291 738,-1291 738,-1285 744,-1279 750,-1279 750,-1279 906,-1279 906,-1279 912,-1279 918,-1285 918,-1291 918,-1291 918,-1310.2 918,-1310.2 918,-1316.2 912,-1322.2 906,-1322.2"/>
<text xml:space="preserve" text-anchor="middle" x="828" y="-1303.65" font-family="Arial" font-size="11.00" fill="white">Feature Extractor</text>
<text xml:space="preserve" text-anchor="middle" x="828" y="-1290.15" font-family="Arial" font-size="11.00" fill="white">(12 features)</text>
</g>
<!-- stream&#45;&gt;extract -->
<g id="edge3" class="edge">
<title>stream&#45;&gt;extract</title>
<path fill="none" stroke="black" stroke-width="2" d="M828,-1418.47C828,-1418.47 828,-1333.79 828,-1333.79"/>
<polygon fill="black" stroke="black" stroke-width="2" points="831.5,-1335.3 828,-1325.3 824.5,-1335.3 831.5,-1335.3"/>
<text xml:space="preserve" text-anchor="middle" x="858.38" y="-1367.15" font-family="Times New Roman,serif" font-size="9.00" fill="#566573">Raw transactions</text>
</g>
<!-- nonce -->
<g id="node5" class="node">
<title>nonce</title>
<polygon fill="#a9dfbf" stroke="black" points="615.5,-1192 536.5,-1192 536.5,-1156 615.5,-1156 615.5,-1192"/>
<text xml:space="preserve" text-anchor="middle" x="576" y="-1175.75" font-family="Times New Roman,serif" font-size="10.00">Nonce Features</text>
<text xml:space="preserve" text-anchor="middle" x="576" y="-1164.5" font-family="Times New Roman,serif" font-size="10.00">(conflict, gap)</text>
</g>
<!-- extract&#45;&gt;nonce -->
<g id="edge4" class="edge">
<title>extract&#45;&gt;nonce</title>
<path fill="none" stroke="#7dcea0" stroke-dasharray="5,2" d="M737.73,-1301C665.43,-1301 576,-1301 576,-1301 576,-1301 576,-1203.98 576,-1203.98"/>
<polygon fill="#7dcea0" stroke="#7dcea0" points="579.5,-1203.98 576,-1193.98 572.5,-1203.98 579.5,-1203.98"/>
</g>
<!-- gas -->
<g id="node6" class="node">
<title>gas</title>
<polygon fill="#a9dfbf" stroke="black" points="808.25,-1192 673.75,-1192 673.75,-1156 808.25,-1156 808.25,-1192"/>
<text xml:space="preserve" text-anchor="middle" x="741" y="-1175.75" font-family="Times New Roman,serif" font-size="10.00">Gas Features</text>
<text xml:space="preserve" text-anchor="middle" x="741" y="-1164.5" font-family="Times New Roman,serif" font-size="10.00">(price, differential, volatility)</text>
</g>
<!-- extract&#45;&gt;gas -->
<g id="edge5" class="edge">
<title>extract&#45;&gt;gas</title>
<path fill="none" stroke="#7dcea0" stroke-dasharray="5,2" d="M773.12,-1278.55C773.12,-1278.55 773.12,-1203.63 773.12,-1203.63"/>
<polygon fill="#7dcea0" stroke="#7dcea0" points="776.63,-1203.63 773.13,-1193.63 769.63,-1203.63 776.63,-1203.63"/>
</g>
<!-- timing -->
<g id="node7" class="node">
<title>timing</title>
<polygon fill="#a9dfbf" stroke="black" points="963.88,-1192 866.12,-1192 866.12,-1156 963.88,-1156 963.88,-1192"/>
<text xml:space="preserve" text-anchor="middle" x="915" y="-1175.75" font-family="Times New Roman,serif" font-size="10.00">Timing Features</text>
<text xml:space="preserve" text-anchor="middle" x="915" y="-1164.5" font-family="Times New Roman,serif" font-size="10.00">(frequency, interval)</text>
</g>
<!-- extract&#45;&gt;timing -->
<g id="edge6" class="edge">
<title>extract&#45;&gt;timing</title>
<path fill="none" stroke="#7dcea0" stroke-dasharray="5,2" d="M892.06,-1278.55C892.06,-1278.55 892.06,-1203.63 892.06,-1203.63"/>
<polygon fill="#7dcea0" stroke="#7dcea0" points="895.56,-1203.63 892.06,-1193.63 888.56,-1203.63 895.56,-1203.63"/>
</g>
<!-- txn -->
<g id="node8" class="node">
<title>txn</title>
<polygon fill="#a9dfbf" stroke="black" points="1122,-1192 1022,-1192 1022,-1156 1122,-1156 1122,-1192"/>
<text xml:space="preserve" text-anchor="middle" x="1072" y="-1175.75" font-family="Times New Roman,serif" font-size="10.00">Transaction Features</text>
<text xml:space="preserve" text-anchor="middle" x="1072" y="-1164.5" font-family="Times New Roman,serif" font-size="10.00">(value, data_size)</text>
</g>
<!-- extract&#45;&gt;txn -->
<g id="edge7" class="edge">
<title>extract&#45;&gt;txn</title>
<path fill="none" stroke="#7dcea0" stroke-dasharray="5,2" d="M918.29,-1301C985.6,-1301 1065.94,-1301 1065.94,-1301 1065.94,-1301 1065.94,-1203.98 1065.94,-1203.98"/>
<polygon fill="#7dcea0" stroke="#7dcea0" points="1069.44,-1203.98 1065.94,-1193.98 1062.44,-1203.98 1069.44,-1203.98"/>
</g>
<!-- standardize -->
<g id="node9" class="node">
<title>standardize</title>
<path fill="#48c9b0" stroke="black" d="M906,-1069C906,-1069 750,-1069 750,-1069 744,-1069 738,-1063 738,-1057 738,-1057 738,-1037.8 738,-1037.8 738,-1031.8 744,-1025.8 750,-1025.8 750,-1025.8 906,-1025.8 906,-1025.8 912,-1025.8 918,-1031.8 918,-1037.8 918,-1037.8 918,-1057 918,-1057 918,-1063 912,-1069 906,-1069"/>
<text xml:space="preserve" text-anchor="middle" x="828" y="-1050.45" font-family="Arial" font-size="11.00" fill="white">Z&#45;Score Standardization</text>
<text xml:space="preserve" text-anchor="middle" x="828" y="-1036.95" font-family="Arial" font-size="11.00" fill="white">(μ=0, σ=1)</text>
</g>
<!-- nonce&#45;&gt;standardize -->
<g id="edge8" class="edge">
<title>nonce&#45;&gt;standardize</title>
<path fill="none" stroke="#7dcea0" stroke-dasharray="5,2" d="M576,-1155.68C576,-1123.46 576,-1060 576,-1060 576,-1060 726.22,-1060 726.22,-1060"/>
<polygon fill="#7dcea0" stroke="#7dcea0" points="726.22,-1063.5 736.22,-1060 726.22,-1056.5 726.22,-1063.5"/>
</g>
<!-- gas&#45;&gt;standardize -->
<g id="edge9" class="edge">
<title>gas&#45;&gt;standardize</title>
<path fill="none" stroke="#7dcea0" stroke-dasharray="5,2" d="M773.12,-1155.59C773.12,-1155.59 773.12,-1080.75 773.12,-1080.75"/>
<polygon fill="#7dcea0" stroke="#7dcea0" points="776.63,-1080.75 773.13,-1070.75 769.63,-1080.75 776.63,-1080.75"/>
</g>
<!-- timing&#45;&gt;standardize -->
<g id="edge10" class="edge">
<title>timing&#45;&gt;standardize</title>
<path fill="none" stroke="#7dcea0" stroke-dasharray="5,2" d="M892.06,-1155.59C892.06,-1155.59 892.06,-1080.75 892.06,-1080.75"/>
<polygon fill="#7dcea0" stroke="#7dcea0" points="895.56,-1080.75 892.06,-1070.75 888.56,-1080.75 895.56,-1080.75"/>
</g>
<!-- txn&#45;&gt;standardize -->
<g id="edge11" class="edge">
<title>txn&#45;&gt;standardize</title>
<path fill="none" stroke="#7dcea0" stroke-dasharray="5,2" d="M1072,-1155.68C1072,-1123.46 1072,-1060 1072,-1060 1072,-1060 929.68,-1060 929.68,-1060"/>
<polygon fill="#7dcea0" stroke="#7dcea0" points="929.68,-1056.5 919.68,-1060 929.68,-1063.5 929.68,-1056.5"/>
</g>
<!-- xgb -->
<g id="node10" class="node">
<title>xgb</title>
<path fill="#9b59b6" stroke="black" d="M192,-891.8C192,-891.8 36,-891.8 36,-891.8 30,-891.8 24,-885.8 24,-879.8 24,-879.8 24,-855.3 24,-855.3 24,-849.3 30,-843.3 36,-843.3 36,-843.3 192,-843.3 192,-843.3 198,-843.3 204,-849.3 204,-855.3 204,-855.3 204,-879.8 204,-879.8 204,-885.8 198,-891.8 192,-891.8"/>
<text xml:space="preserve" text-anchor="middle" x="114" y="-877.35" font-family="Arial" font-size="11.00" fill="white">XGBoost</text>
<text xml:space="preserve" text-anchor="middle" x="114" y="-863.85" font-family="Arial" font-size="11.00" fill="white">(269 trees, Bayesian opt)</text>
<text xml:space="preserve" text-anchor="middle" x="114" y="-850.35" font-family="Arial" font-size="11.00" fill="white">96.48% acc</text>
</g>
<!-- standardize&#45;&gt;xgb -->
<g id="edge12" class="edge">
<title>standardize&#45;&gt;xgb</title>
<path fill="none" stroke="black" stroke-width="2" d="M737.57,-1052C545.44,-1052 114,-1052 114,-1052 114,-1052 114,-903.56 114,-903.56"/>
<polygon fill="black" stroke="black" stroke-width="2" points="117.5,-905.07 114,-895.07 110.5,-905.07 117.5,-905.07"/>
<text xml:space="preserve" text-anchor="middle" x="305.38" y="-974.25" font-family="Times New Roman,serif" font-size="9.00" fill="#566573">80/20 split</text>
<text xml:space="preserve" text-anchor="middle" x="305.38" y="-963.75" font-family="Times New Roman,serif" font-size="9.00" fill="#566573">82,987 train</text>
</g>
<!-- rf -->
<g id="node11" class="node">
<title>rf</title>
<path fill="#bb8fce" stroke="black" d="M430,-891.8C430,-891.8 274,-891.8 274,-891.8 268,-891.8 262,-885.8 262,-879.8 262,-879.8 262,-855.3 262,-855.3 262,-849.3 268,-843.3 274,-843.3 274,-843.3 430,-843.3 430,-843.3 436,-843.3 442,-849.3 442,-855.3 442,-855.3 442,-879.8 442,-879.8 442,-885.8 436,-891.8 430,-891.8"/>
<text xml:space="preserve" text-anchor="middle" x="352" y="-877.35" font-family="Arial" font-size="11.00">Random Forest</text>
<text xml:space="preserve" text-anchor="middle" x="352" y="-863.85" font-family="Arial" font-size="11.00">(200 trees)</text>
<text xml:space="preserve" text-anchor="middle" x="352" y="-850.35" font-family="Arial" font-size="11.00">96.48% acc</text>
</g>
<!-- standardize&#45;&gt;rf -->
<g id="edge13" class="edge">
<title>standardize&#45;&gt;rf</title>
<path fill="none" stroke="#7f8c8d" stroke-width="2" d="M737.63,-1043C599.58,-1043 352,-1043 352,-1043 352,-1043 352,-903.46 352,-903.46"/>
<polygon fill="#7f8c8d" stroke="#7f8c8d" stroke-width="2" points="355.5,-904.97 352,-894.97 348.5,-904.97 355.5,-904.97"/>
</g>
<!-- svm -->
<g id="node12" class="node">
<title>svm</title>
<path fill="#d7bde2" stroke="black" d="M668,-891.8C668,-891.8 512,-891.8 512,-891.8 506,-891.8 500,-885.8 500,-879.8 500,-879.8 500,-855.3 500,-855.3 500,-849.3 506,-843.3 512,-843.3 512,-843.3 668,-843.3 668,-843.3 674,-843.3 680,-849.3 680,-855.3 680,-855.3 680,-879.8 680,-879.8 680,-885.8 674,-891.8 668,-891.8"/>
<text xml:space="preserve" text-anchor="middle" x="590" y="-877.35" font-family="Arial" font-size="11.00">SVM (Linear+RBF)</text>
<text xml:space="preserve" text-anchor="middle" x="590" y="-863.85" font-family="Arial" font-size="11.00">(GridSearchCV)</text>
<text xml:space="preserve" text-anchor="middle" x="590" y="-850.35" font-family="Arial" font-size="11.00">61&#45;82% acc</text>
</g>
<!-- standardize&#45;&gt;svm -->
<g id="edge14" class="edge">
<title>standardize&#45;&gt;svm</title>
<path fill="none" stroke="#7f8c8d" stroke-width="2" d="M737.66,-1034C691.37,-1034 644.62,-1034 644.62,-1034 644.62,-1034 644.62,-903.62 644.62,-903.62"/>
<polygon fill="#7f8c8d" stroke="#7f8c8d" stroke-width="2" points="648.13,-905.14 644.63,-895.14 641.13,-905.14 648.13,-905.14"/>
</g>
<!-- mlp -->
<g id="node13" class="node">
<title>mlp</title>
<path fill="#9b59b6" stroke="black" d="M906,-889.15C906,-889.15 750,-889.15 750,-889.15 744,-889.15 738,-883.15 738,-877.15 738,-877.15 738,-857.95 738,-857.95 738,-851.95 744,-845.95 750,-845.95 750,-845.95 906,-845.95 906,-845.95 912,-845.95 918,-851.95 918,-857.95 918,-857.95 918,-877.15 918,-877.15 918,-883.15 912,-889.15 906,-889.15"/>
<text xml:space="preserve" text-anchor="middle" x="828" y="-870.6" font-family="Arial" font-size="11.00" fill="white">MLP (12K params)</text>
<text xml:space="preserve" text-anchor="middle" x="828" y="-857.1" font-family="Arial" font-size="11.00" fill="white">96.49% acc</text>
</g>
<!-- standardize&#45;&gt;mlp -->
<g id="edge15" class="edge">
<title>standardize&#45;&gt;mlp</title>
<path fill="none" stroke="#7f8c8d" stroke-width="2" d="M828,-1025.35C828,-1025.35 828,-901.02 828,-901.02"/>
<polygon fill="#7f8c8d" stroke="#7f8c8d" stroke-width="2" points="831.5,-902.53 828,-892.53 824.5,-902.53 831.5,-902.53"/>
</g>
<!-- cnn -->
<g id="node14" class="node">
<title>cnn</title>
<path fill="#bb8fce" stroke="black" d="M1144,-889.15C1144,-889.15 988,-889.15 988,-889.15 982,-889.15 976,-883.15 976,-877.15 976,-877.15 976,-857.95 976,-857.95 976,-851.95 982,-845.95 988,-845.95 988,-845.95 1144,-845.95 1144,-845.95 1150,-845.95 1156,-851.95 1156,-857.95 1156,-857.95 1156,-877.15 1156,-877.15 1156,-883.15 1150,-889.15 1144,-889.15"/>
<text xml:space="preserve" text-anchor="middle" x="1066" y="-870.6" font-family="Arial" font-size="11.00">1D&#45;CNN (9K params)</text>
<text xml:space="preserve" text-anchor="middle" x="1066" y="-857.1" font-family="Arial" font-size="11.00">96.46% acc</text>
</g>
<!-- standardize&#45;&gt;cnn -->
<g id="edge16" class="edge">
<title>standardize&#45;&gt;cnn</title>
<path fill="none" stroke="#7f8c8d" stroke-width="2" d="M918.26,-1034C959.36,-1034 999,-1034 999,-1034 999,-1034 999,-900.82 999,-900.82"/>
<polygon fill="#7f8c8d" stroke="#7f8c8d" stroke-width="2" points="1002.5,-902.34 999,-892.34 995.5,-902.34 1002.5,-902.34"/>
</g>
<!-- lstm -->
<g id="node15" class="node">
<title>lstm</title>
<path fill="#d7bde2" stroke="black" d="M1382,-889.15C1382,-889.15 1226,-889.15 1226,-889.15 1220,-889.15 1214,-883.15 1214,-877.15 1214,-877.15 1214,-857.95 1214,-857.95 1214,-851.95 1220,-845.95 1226,-845.95 1226,-845.95 1382,-845.95 1382,-845.95 1388,-845.95 1394,-851.95 1394,-857.95 1394,-857.95 1394,-877.15 1394,-877.15 1394,-883.15 1388,-889.15 1382,-889.15"/>
<text xml:space="preserve" text-anchor="middle" x="1304" y="-870.6" font-family="Arial" font-size="11.00">BiLSTM (79K params)</text>
<text xml:space="preserve" text-anchor="middle" x="1304" y="-857.1" font-family="Arial" font-size="11.00">96.49% acc</text>
</g>
<!-- standardize&#45;&gt;lstm -->
<g id="edge17" class="edge">
<title>standardize&#45;&gt;lstm</title>
<path fill="none" stroke="#7f8c8d" stroke-width="2" d="M918.37,-1043C1038.02,-1043 1234.06,-1043 1234.06,-1043 1234.06,-1043 1234.06,-900.93 1234.06,-900.93"/>
<polygon fill="#7f8c8d" stroke="#7f8c8d" stroke-width="2" points="1237.56,-902.44 1234.06,-892.44 1230.56,-902.44 1237.56,-902.44"/>
</g>
<!-- transformer -->
<g id="node16" class="node">
<title>transformer</title>
<path fill="#e8daef" stroke="black" d="M1620,-889.15C1620,-889.15 1464,-889.15 1464,-889.15 1458,-889.15 1452,-883.15 1452,-877.15 1452,-877.15 1452,-857.95 1452,-857.95 1452,-851.95 1458,-845.95 1464,-845.95 1464,-845.95 1620,-845.95 1620,-845.95 1626,-845.95 1632,-851.95 1632,-857.95 1632,-857.95 1632,-877.15 1632,-877.15 1632,-883.15 1626,-889.15 1620,-889.15"/>
<text xml:space="preserve" text-anchor="middle" x="1542" y="-870.6" font-family="Arial" font-size="11.00">Transformer (80K params)</text>
<text xml:space="preserve" text-anchor="middle" x="1542" y="-857.1" font-family="Arial" font-size="11.00">96.49% acc</text>
</g>
<!-- standardize&#45;&gt;transformer -->
<g id="edge18" class="edge">
<title>standardize&#45;&gt;transformer</title>
<path fill="none" stroke="#7f8c8d" stroke-width="2" d="M918.21,-1052C1097.56,-1052 1481.75,-1052 1481.75,-1052 1481.75,-1052 1481.75,-900.95 1481.75,-900.95"/>
<polygon fill="#7f8c8d" stroke="#7f8c8d" stroke-width="2" points="1485.25,-902.46 1481.75,-892.46 1478.25,-902.46 1485.25,-902.46"/>
</g>
<!-- cv -->
<g id="node17" class="node">
<title>cv</title>
<path fill="#f39c12" stroke="black" d="M906,-756.3C906,-756.3 750,-756.3 750,-756.3 744,-756.3 738,-750.3 738,-744.3 738,-744.3 738,-725.1 738,-725.1 738,-719.1 744,-713.1 750,-713.1 750,-713.1 906,-713.1 906,-713.1 912,-713.1 918,-719.1 918,-725.1 918,-725.1 918,-744.3 918,-744.3 918,-750.3 912,-756.3 906,-756.3"/>
<text xml:space="preserve" text-anchor="middle" x="828" y="-737.75" font-family="Arial" font-size="11.00" fill="white">5&#45;Fold Cross&#45;Validation</text>
<text xml:space="preserve" text-anchor="middle" x="828" y="-724.25" font-family="Arial" font-size="11.00" fill="white">(F1&#45;weighted scoring)</text>
</g>
<!-- xgb&#45;&gt;cv -->
<g id="edge19" class="edge">
<title>xgb&#45;&gt;cv</title>
<path fill="none" stroke="#8e44ad" stroke-width="2" d="M114,-842.87C114,-801.83 114,-724 114,-724 114,-724 726.06,-724 726.06,-724"/>
<polygon fill="#8e44ad" stroke="#8e44ad" stroke-width="2" points="724.54,-727.5 734.54,-724 724.54,-720.5 724.54,-727.5"/>
</g>
<!-- rf&#45;&gt;cv -->
<g id="edge20" class="edge">
<title>rf&#45;&gt;cv</title>
<path fill="none" stroke="#7f8c8d" d="M352,-842.93C352,-804.6 352,-735 352,-735 352,-735 726.11,-735 726.11,-735"/>
<polygon fill="#7f8c8d" stroke="#7f8c8d" points="726.11,-738.5 736.11,-735 726.11,-731.5 726.11,-738.5"/>
</g>
<!-- svm&#45;&gt;cv -->
<g id="edge21" class="edge">
<title>svm&#45;&gt;cv</title>
<path fill="none" stroke="#7f8c8d" d="M637.5,-842.95C637.5,-807.44 637.5,-746 637.5,-746 637.5,-746 726.26,-746 726.26,-746"/>
<polygon fill="#7f8c8d" stroke="#7f8c8d" points="726.26,-749.5 736.26,-746 726.26,-742.5 726.26,-749.5"/>
</g>
<!-- mlp&#45;&gt;cv -->
<g id="edge22" class="edge">
<title>mlp&#45;&gt;cv</title>
<path fill="none" stroke="#7f8c8d" d="M828,-845.61C828,-845.61 828,-768.18 828,-768.18"/>
<polygon fill="#7f8c8d" stroke="#7f8c8d" points="831.5,-768.18 828,-758.18 824.5,-768.18 831.5,-768.18"/>
</g>
<!-- cnn&#45;&gt;cv -->
<g id="edge23" class="edge">
<title>cnn&#45;&gt;cv</title>
<path fill="none" stroke="#7f8c8d" d="M994.5,-845.54C994.5,-810.51 994.5,-746 994.5,-746 994.5,-746 929.59,-746 929.59,-746"/>
<polygon fill="#7f8c8d" stroke="#7f8c8d" points="929.59,-742.5 919.59,-746 929.59,-749.5 929.59,-742.5"/>
</g>
<!-- lstm&#45;&gt;cv -->
<g id="edge24" class="edge">
<title>lstm&#45;&gt;cv</title>
<path fill="none" stroke="#7f8c8d" d="M1304,-845.66C1304,-808.01 1304,-735 1304,-735 1304,-735 929.89,-735 929.89,-735"/>
<polygon fill="#7f8c8d" stroke="#7f8c8d" points="929.89,-731.5 919.89,-735 929.89,-738.5 929.89,-731.5"/>
</g>
<!-- transformer&#45;&gt;cv -->
<g id="edge25" class="edge">
<title>transformer&#45;&gt;cv</title>
<path fill="none" stroke="#7f8c8d" d="M1542,-845.75C1542,-805.59 1542,-724 1542,-724 1542,-724 929.94,-724 929.94,-724"/>
<polygon fill="#7f8c8d" stroke="#7f8c8d" points="929.94,-720.5 919.94,-724 929.94,-727.5 929.94,-720.5"/>
</g>
<!-- mcnemar -->
<g id="node18" class="node">
<title>mcnemar</title>
<path fill="#f8b739" stroke="black" d="M763,-606.1C763,-606.1 607,-606.1 607,-606.1 601,-606.1 595,-600.1 595,-594.1 595,-594.1 595,-574.9 595,-574.9 595,-568.9 601,-562.9 607,-562.9 607,-562.9 763,-562.9 763,-562.9 769,-562.9 775,-568.9 775,-574.9 775,-574.9 775,-594.1 775,-594.1 775,-600.1 769,-606.1 763,-606.1"/>
<text xml:space="preserve" text-anchor="middle" x="685" y="-587.55" font-family="Arial" font-size="11.00">McNemar&#39;s Test</text>
<text xml:space="preserve" text-anchor="middle" x="685" y="-574.05" font-family="Arial" font-size="11.00">(p&lt;0.001 vs SVM)</text>
</g>
<!-- cv&#45;&gt;mcnemar -->
<g id="edge26" class="edge">
<title>cv&#45;&gt;mcnemar</title>
<path fill="none" stroke="black" d="M756.5,-712.86C756.5,-712.86 756.5,-617.88 756.5,-617.88"/>
<polygon fill="black" stroke="black" points="760,-617.88 756.5,-607.88 753,-617.88 760,-617.88"/>
<text xml:space="preserve" text-anchor="middle" x="753" y="-661.55" font-family="Times New Roman,serif" font-size="9.00" fill="#566573">Statistical</text>
<text xml:space="preserve" text-anchor="middle" x="753" y="-651.05" font-family="Times New Roman,serif" font-size="9.00" fill="#566573">significance</text>
</g>
<!-- ablation -->
<g id="node19" class="node">
<title>ablation</title>
<path fill="#fad7a0" stroke="black" d="M1001,-606.1C1001,-606.1 845,-606.1 845,-606.1 839,-606.1 833,-600.1 833,-594.1 833,-594.1 833,-574.9 833,-574.9 833,-568.9 839,-562.9 845,-562.9 845,-562.9 1001,-562.9 1001,-562.9 1007,-562.9 1013,-568.9 1013,-574.9 1013,-574.9 1013,-594.1 1013,-594.1 1013,-600.1 1007,-606.1 1001,-606.1"/>
<text xml:space="preserve" text-anchor="middle" x="923" y="-587.55" font-family="Arial" font-size="11.00">Feature Ablation</text>
<text xml:space="preserve" text-anchor="middle" x="923" y="-574.05" font-family="Arial" font-size="11.00">(12 experiments)</text>
</g>
<!-- cv&#45;&gt;ablation -->
<g id="edge27" class="edge">
<title>cv&#45;&gt;ablation</title>
<path fill="none" stroke="black" d="M875.5,-712.86C875.5,-712.86 875.5,-617.88 875.5,-617.88"/>
<polygon fill="black" stroke="black" points="879,-617.88 875.5,-607.88 872,-617.88 879,-617.88"/>
</g>
<!-- select -->
<g id="node20" class="node">
<title>select</title>
<path fill="#d68910" stroke="black" stroke-width="2" d="M900,-475.9C900,-475.9 708,-475.9 708,-475.9 702,-475.9 696,-469.9 696,-463.9 696,-463.9 696,-451.4 696,-451.4 696,-445.4 702,-439.4 708,-439.4 708,-439.4 900,-439.4 900,-439.4 906,-439.4 912,-445.4 912,-451.4 912,-451.4 912,-463.9 912,-463.9 912,-469.9 906,-475.9 900,-475.9"/>
<text xml:space="preserve" text-anchor="middle" x="804" y="-460.5" font-family="Times New Roman,serif" font-size="12.00" fill="white">XGBoost Selected</text>
<text xml:space="preserve" text-anchor="middle" x="804" y="-446.25" font-family="Times New Roman,serif" font-size="12.00" fill="white">(96.48% acc, 0.0035ms)</text>
</g>
<!-- mcnemar&#45;&gt;select -->
<g id="edge28" class="edge">
<title>mcnemar&#45;&gt;select</title>
<path fill="none" stroke="#e67e22" stroke-width="2" d="M735.5,-562.4C735.5,-562.4 735.5,-487.71 735.5,-487.71"/>
<polygon fill="#e67e22" stroke="#e67e22" stroke-width="2" points="739,-489.22 735.5,-479.22 732,-489.22 739,-489.22"/>
</g>
<!-- ablation&#45;&gt;select -->
<g id="edge29" class="edge">
<title>ablation&#45;&gt;select</title>
<path fill="none" stroke="#e67e22" stroke-width="2" d="M872.5,-562.4C872.5,-562.4 872.5,-487.71 872.5,-487.71"/>
<polygon fill="#e67e22" stroke="#e67e22" stroke-width="2" points="876,-489.22 872.5,-479.22 869,-489.22 876,-489.22"/>
</g>
<!-- deploy -->
<g id="node21" class="node">
<title>deploy</title>
<path fill="#e74c3c" stroke="black" d="M882,-332.4C882,-332.4 726,-332.4 726,-332.4 720,-332.4 714,-326.4 714,-320.4 714,-320.4 714,-301.2 714,-301.2 714,-295.2 720,-289.2 726,-289.2 726,-289.2 882,-289.2 882,-289.2 888,-289.2 894,-295.2 894,-301.2 894,-301.2 894,-320.4 894,-320.4 894,-326.4 888,-332.4 882,-332.4"/>
<text xml:space="preserve" text-anchor="middle" x="804" y="-313.85" font-family="Arial" font-size="11.00" fill="white">Real&#45;Time Detector</text>
<text xml:space="preserve" text-anchor="middle" x="804" y="-300.35" font-family="Arial" font-size="11.00" fill="white">(1,280 tx/s throughput)</text>
</g>
<!-- select&#45;&gt;deploy -->
<g id="edge30" class="edge">
<title>select&#45;&gt;deploy</title>
<path fill="none" stroke="#c0392b" stroke-width="2" d="M804,-439.05C804,-439.05 804,-344.1 804,-344.1"/>
<polygon fill="#c0392b" stroke="#c0392b" stroke-width="2" points="807.5,-345.61 804,-335.61 800.5,-345.61 807.5,-345.61"/>
<text xml:space="preserve" text-anchor="middle" x="824.62" y="-387.85" font-family="Times New Roman,serif" font-size="9.00" fill="#566573">Production</text>
<text xml:space="preserve" text-anchor="middle" x="824.62" y="-377.35" font-family="Times New Roman,serif" font-size="9.00" fill="#566573">deployment</text>
</g>
<!-- shap -->
<g id="node22" class="node">
<title>shap</title>
<polygon fill="#f1948a" stroke="black" points="775.12,-202.2 678.88,-202.2 678.88,-166.2 775.12,-166.2 775.12,-202.2"/>
<text xml:space="preserve" text-anchor="middle" x="727" y="-185.95" font-family="Times New Roman,serif" font-size="10.00">SHAP Analysis</text>
<text xml:space="preserve" text-anchor="middle" x="727" y="-174.7" font-family="Times New Roman,serif" font-size="10.00">(global importance)</text>
</g>
<!-- deploy&#45;&gt;shap -->
<g id="edge31" class="edge">
<title>deploy&#45;&gt;shap</title>
<path fill="none" stroke="#ec7063" stroke-dasharray="5,2" d="M744.56,-288.75C744.56,-288.75 744.56,-213.83 744.56,-213.83"/>
<polygon fill="#ec7063" stroke="#ec7063" points="748.06,-213.83 744.56,-203.83 741.06,-213.83 748.06,-213.83"/>
</g>
<!-- lime -->
<g id="node23" class="node">
<title>lime</title>
<polygon fill="#f1948a" stroke="black" points="929.12,-202.2 832.88,-202.2 832.88,-166.2 929.12,-166.2 929.12,-202.2"/>
<text xml:space="preserve" text-anchor="middle" x="881" y="-185.95" font-family="Times New Roman,serif" font-size="10.00">LIME Explanations</text>
<text xml:space="preserve" text-anchor="middle" x="881" y="-174.7" font-family="Times New Roman,serif" font-size="10.00">(instance&#45;level)</text>
</g>
<!-- deploy&#45;&gt;lime -->
<g id="edge32" class="edge">
<title>deploy&#45;&gt;lime</title>
<path fill="none" stroke="#ec7063" stroke-dasharray="5,2" d="M863.44,-288.75C863.44,-288.75 863.44,-213.83 863.44,-213.83"/>
<polygon fill="#ec7063" stroke="#ec7063" points="866.94,-213.83 863.44,-203.83 859.94,-213.83 866.94,-213.83"/>
</g>
<!-- alert -->
<g id="node24" class="node">
<title>alert</title>
<path fill="#c0392b" stroke="black" d="M879,-59.2C879,-59.2 723,-59.2 723,-59.2 717,-59.2 711,-53.2 711,-47.2 711,-47.2 711,-28 711,-28 711,-22 717,-16 723,-16 723,-16 879,-16 879,-16 885,-16 891,-22 891,-28 891,-28 891,-47.2 891,-47.2 891,-53.2 885,-59.2 879,-59.2"/>
<text xml:space="preserve" text-anchor="middle" x="801" y="-40.65" font-family="Arial" font-size="11.00" fill="white">Alert System</text>
<text xml:space="preserve" text-anchor="middle" x="801" y="-27.15" font-family="Arial" font-size="11.00" fill="white">(5 attack categories)</text>
</g>
<!-- shap&#45;&gt;alert -->
<g id="edge33" class="edge">
<title>shap&#45;&gt;alert</title>
<path fill="none" stroke="#c0392b" d="M743.06,-165.93C743.06,-165.93 743.06,-70.96 743.06,-70.96"/>
<polygon fill="#c0392b" stroke="#c0392b" points="746.56,-70.96 743.06,-60.96 739.56,-70.96 746.56,-70.96"/>
<text xml:space="preserve" text-anchor="middle" x="769.75" y="-114.65" font-family="Times New Roman,serif" font-size="9.00" fill="#566573">Explainable</text>
<text xml:space="preserve" text-anchor="middle" x="769.75" y="-104.15" font-family="Times New Roman,serif" font-size="9.00" fill="#566573">classifications</text>
</g>
<!-- lime&#45;&gt;alert -->
<g id="edge34" class="edge">
<title>lime&#45;&gt;alert</title>
<path fill="none" stroke="#c0392b" d="M861.94,-165.93C861.94,-165.93 861.94,-70.96 861.94,-70.96"/>
<polygon fill="#c0392b" stroke="#c0392b" points="865.44,-70.96 861.94,-60.96 858.44,-70.96 865.44,-70.96"/>
</g>
<!-- leg1 -->
<g id="node25" class="node">
<title>leg1</title>
<text xml:space="preserve" text-anchor="middle" x="1182" y="-1739.47" font-family="Times New Roman,serif" font-size="10.00">Bold edges = Primary data flow</text>
</g>
<!-- leg2 -->
<g id="node26" class="node">
<title>leg2</title>
<text xml:space="preserve" text-anchor="middle" x="1412" y="-1739.47" font-family="Times New Roman,serif" font-size="10.00">Dashed edges = Internal module connections</text>
</g>
</g>
</svg>
